PathFileType	4	(X/Y/Z)	/home/abdul/Desktop/myosuite/custom_workspace/IK/output/S3_12_2.trc
DataRate	CameraRate	NumFrames	NumMarkers	Units	OrigDataRate	OrigDataStartFrame	OrigNumFrames
200.0	200.0	22	3	mm	200.0	239	955
Frame#	Time	V_Shoulder			V_Elbow			V_Wrist		
		X1	Y1	Z1	X2	Y2	Z2	X3	Y3	Z3

239	1.19	-123.56085879868813	644.5260951138467	311.6645299082184	-304.86663363634887	437.6122713836259	61.86578710205499	-91.65856103562425	255.24886204487976	136.2454740641912
240	1.195	-123.56405942198815	644.7239335054587	311.74092421638994	-305.05439910634567	437.5691594302793	62.3075602885323	-91.62688917405073	256.1729992381128	138.5673935219316
241	1.2	-123.56638934235541	644.9220688940354	311.8189905943334	-305.24744779230156	437.52457966150405	62.76359166865638	-91.60276406050491	257.11023310597466	140.90483441910285
242	1.205	-123.56782278388077	645.1204682181951	311.8987075033192	-305.44581570380046	437.4786221983593	63.23394687361362	-91.586228570689	258.06057391281206	143.25678087985776
243	1.21	-123.56833795213686	645.3190975237895	311.9800489601478	-305.64953119820024	437.4313803680986	63.718667377086284	-91.5773124876631	259.0240312111466	145.62219859838373
244	1.215	-123.56791706038075	645.5179219623054	312.06298455700914	-305.85861459778914	437.38295044957624	64.21776982011974	-91.57603250400405	260.0006138444999	148.00003604461148
245	1.22	-123.56654634517524	645.716905798509	312.1474794943367	-306.0730778187559	437.3334313992456	64.73124539545657	-91.58239224617414	260.99032993530915	150.38922571111203
246	1.225	-123.5642160713346	645.9160124272239	312.23349462674037	-306.2929240137306	437.28292455784174	65.2590592953481	-91.59638232082048	261.9931868549555	152.7886853982079
247	1.23	-123.56092052613015	646.1152043990904	312.320986522051	-306.51814722971744	437.23153333797586	65.80115022677833	-91.61798038275518	263.00919117300214	155.19731953423366
248	1.235	-123.55665800272247	646.3144434551014	312.4099075334687	-306.7487320832948	437.1793628930121	66.3574299979395	-91.64715122439344	264.03834858284046	157.61402052781006
249	1.24	-123.55143077281794	646.5136905696745	312.50020588475525	-306.98465345500796	437.1265197677455	66.92778317967841	-91.683846886451	265.08066380107755	160.03767014894134
250	1.245	-123.54524504857982	646.7129060019672	312.59182576836463	-307.2258762049148	437.07311153155297	67.51206684548944	-91.7280067897241	266.1361404381565	162.46714093570964
251	1.25	-123.5381109338551	646.9120493551096	312.6847074563608	-307.47235491127	437.01924639485185	68.11011039345829	-91.7795578877934	267.2047808378911	164.90129762332026
252	1.255	-123.53004236481115	647.1110796429833	312.77878742392164	-307.7240336343462	436.96503280986155	68.72171545336269	-91.8384148405072	268.2865858838098	167.3389985922505
253	1.26	-123.52105704010825	647.3099553641404	312.8739984851848	-307.9808457073877	436.910579056835	69.34665588190602	-91.90448020810982	269.38155477044455	169.77909733226778
254	1.265	-123.51117634076581	647.5086345824226	312.9702699411416	-308.2427135566729	436.85599281710086	69.9846778487987	-91.9776446658855	270.4896847379634	172.22044391911328
255	1.27	-123.50042523991301	647.7070750138045	313.06752773924364	-308.5095485526284	436.80138073443413	70.63550001610784	-92.05778723918883	271.61097076882993	174.6618865006903
256	1.275	-123.48883220264459	647.9052341189555	313.16569464434076	-308.7812508938795	436.7468479664512	71.29881381296369	-92.14477555872767	272.7454052454788	177.10227278965533
257	1.28	-123.47642907623562	648.1030692009931	313.264690420526	-309.05770952605116	436.6924977279135	71.97428380734404	-92.23846613595393	273.8929775683186	179.54045155937925
258	1.285	-123.46325097099812	648.3005375078628	313.36443202342326	-309.33880209703545	436.63843082800764	72.66154817624957	-92.33870465840124	275.0536737337136	181.97527414032612
259	1.29	-123.44933613209372	648.4975963387723	313.464833802412	-309.6243949503221	436.5847452038592	73.3602192751346	-92.44532630478689	276.22747587194385	184.4055959139896
260	1.295	-123.43472580264483	648.694203154077	313.56580771224355	-309.9143431578484	436.5315354527297	74.06988430696573	-92.55815607966815	277.4143617455076	186.83027780162382
